<mxfile host="app.diagrams.net" modified="2023-08-28T21:38:51.526Z" agent="Mozilla/5.0 (Macintosh; Intel Mac OS X 10_15_7) AppleWebKit/605.1.15 (KHTML, like Gecko) Version/16.3 Safari/605.1.15" etag="Lc88Fo7fyM1kSEU9hIXR" version="21.6.9" type="github">
  <diagram name="Page-1" id="6Zkwd5M3KuAh5QiwCv1M">
    <mxGraphModel dx="1194" dy="691" grid="1" gridSize="10" guides="1" tooltips="1" connect="1" arrows="1" fold="1" page="1" pageScale="1" pageWidth="850" pageHeight="1100" math="0" shadow="0">
      <root>
        <mxCell id="0" />
        <mxCell id="1" parent="0" />
        <mxCell id="ILJzXNznsKejwd8JNXi--1" value="&lt;p style=&quot;line-height: 100%;&quot;&gt;&lt;/p&gt;&lt;div style=&quot;font-style: normal; font-variant-caps: normal; font-weight: normal; letter-spacing: normal; text-align: start; text-indent: 0px; text-transform: none; word-spacing: 0px; -webkit-text-stroke-width: 0px; text-decoration: none; font-family: &amp;quot;IckyTicket Mono&amp;quot;, Menlo, Monaco, &amp;quot;Courier New&amp;quot;, monospace, &amp;quot;PT Mono&amp;quot;, Menlo, Monaco, &amp;quot;Courier New&amp;quot;, monospace; font-size: 16px; line-height: 120%;&quot;&gt;&lt;div style=&quot;line-height: 120%;&quot;&gt;&lt;span style=&quot;background-color: rgb(255, 248, 247);&quot;&gt;&lt;font style=&quot;font-size: 16px;&quot; color=&quot;#393a3b&quot;&gt;org $C1E48D&lt;/font&gt;&lt;/span&gt;&lt;/div&gt;&lt;div style=&quot;line-height: 120%;&quot;&gt;&lt;span style=&quot;background-color: rgb(255, 248, 247);&quot;&gt;&lt;font style=&quot;font-size: 16px;&quot; color=&quot;#393a3b&quot;&gt;label_C1E48D:&lt;/font&gt;&lt;/span&gt;&lt;/div&gt;&lt;div style=&quot;line-height: 120%;&quot;&gt;&lt;span style=&quot;background-color: rgb(255, 248, 247);&quot;&gt;&lt;font style=&quot;font-size: 16px;&quot; color=&quot;#393a3b&quot;&gt;    REP.b #$31&lt;/font&gt;&lt;/span&gt;&lt;/div&gt;&lt;div style=&quot;line-height: 120%;&quot;&gt;&lt;span style=&quot;background-color: rgb(255, 248, 247);&quot;&gt;&lt;font style=&quot;font-size: 16px;&quot; color=&quot;#393a3b&quot;&gt;    PHD&lt;/font&gt;&lt;/span&gt;&lt;/div&gt;&lt;div style=&quot;line-height: 120%;&quot;&gt;&lt;span style=&quot;background-color: rgb(255, 248, 247);&quot;&gt;&lt;font style=&quot;font-size: 16px;&quot; color=&quot;#393a3b&quot;&gt;    PHA&lt;/font&gt;&lt;/span&gt;&lt;/div&gt;&lt;div style=&quot;line-height: 120%;&quot;&gt;&lt;span style=&quot;background-color: rgb(255, 248, 247);&quot;&gt;&lt;font style=&quot;font-size: 16px;&quot; color=&quot;#393a3b&quot;&gt;    TDC&lt;/font&gt;&lt;/span&gt;&lt;/div&gt;&lt;div style=&quot;line-height: 120%;&quot;&gt;&lt;span style=&quot;background-color: rgb(255, 248, 247);&quot;&gt;&lt;font style=&quot;font-size: 16px;&quot; color=&quot;#393a3b&quot;&gt;    ADC.w #$FFEE&lt;/font&gt;&lt;/span&gt;&lt;/div&gt;&lt;div style=&quot;line-height: 120%;&quot;&gt;&lt;span style=&quot;background-color: rgb(255, 248, 247);&quot;&gt;&lt;font style=&quot;font-size: 16px;&quot; color=&quot;#393a3b&quot;&gt;    TCD&lt;/font&gt;&lt;/span&gt;&lt;/div&gt;&lt;div style=&quot;line-height: 120%;&quot;&gt;&lt;span style=&quot;background-color: rgb(255, 248, 247);&quot;&gt;&lt;font style=&quot;font-size: 16px;&quot; color=&quot;#393a3b&quot;&gt;    PLA&lt;/font&gt;&lt;/span&gt;&lt;/div&gt;&lt;div style=&quot;line-height: 120%;&quot;&gt;&lt;span style=&quot;background-color: rgb(255, 248, 247);&quot;&gt;&lt;font style=&quot;font-size: 16px;&quot; color=&quot;#393a3b&quot;&gt;    STY.b $10&lt;/font&gt;&lt;/span&gt;&lt;/div&gt;&lt;div style=&quot;line-height: 120%;&quot;&gt;&lt;span style=&quot;background-color: rgb(255, 248, 247);&quot;&gt;&lt;font style=&quot;font-size: 16px;&quot; color=&quot;#393a3b&quot;&gt;    STX.b $0E&lt;/font&gt;&lt;/span&gt;&lt;/div&gt;&lt;div style=&quot;line-height: 120%;&quot;&gt;&lt;span style=&quot;background-color: rgb(255, 248, 247);&quot;&gt;&lt;font style=&quot;font-size: 16px;&quot; color=&quot;#393a3b&quot;&gt;    STA.b $02&lt;/font&gt;&lt;/span&gt;&lt;/div&gt;&lt;div style=&quot;line-height: 120%;&quot;&gt;&lt;span style=&quot;background-color: rgb(255, 248, 247);&quot;&gt;&lt;font style=&quot;font-size: 16px;&quot; color=&quot;#393a3b&quot;&gt;    JSL.l label_C3E4D4&lt;/font&gt;&lt;/span&gt;&lt;/div&gt;&lt;div style=&quot;line-height: 120%;&quot;&gt;&lt;span style=&quot;background-color: rgb(255, 248, 247);&quot;&gt;&lt;font style=&quot;font-size: 16px;&quot; color=&quot;#393a3b&quot;&gt;    LDA.b $02&lt;/font&gt;&lt;/span&gt;&lt;/div&gt;&lt;div style=&quot;line-height: 120%;&quot;&gt;&lt;span style=&quot;background-color: rgb(255, 248, 247);&quot;&gt;&lt;font style=&quot;font-size: 16px;&quot; color=&quot;#393a3b&quot;&gt;    JSR.w label_C1007E&lt;/font&gt;&lt;/span&gt;&lt;/div&gt;&lt;div style=&quot;line-height: 120%;&quot;&gt;&lt;span style=&quot;background-color: rgb(255, 248, 247);&quot;&gt;&lt;font style=&quot;font-size: 16px;&quot; color=&quot;#393a3b&quot;&gt;    LDY.b $10&lt;/font&gt;&lt;/span&gt;&lt;/div&gt;&lt;div style=&quot;line-height: 120%;&quot;&gt;&lt;span style=&quot;background-color: rgb(255, 248, 247);&quot;&gt;&lt;font style=&quot;font-size: 16px;&quot; color=&quot;#393a3b&quot;&gt;    LDX.b $0E&lt;/font&gt;&lt;/span&gt;&lt;/div&gt;&lt;div style=&quot;line-height: 120%;&quot;&gt;&lt;span style=&quot;background-color: rgb(255, 248, 247);&quot;&gt;&lt;font style=&quot;font-size: 16px;&quot; color=&quot;#393a3b&quot;&gt;    LDA.b $02&lt;/font&gt;&lt;/span&gt;&lt;/div&gt;&lt;div style=&quot;line-height: 120%;&quot;&gt;&lt;span style=&quot;background-color: rgb(255, 248, 247);&quot;&gt;&lt;font style=&quot;font-size: 16px;&quot; color=&quot;#393a3b&quot;&gt;    JSL.l label_C442AC&lt;/font&gt;&lt;/span&gt;&lt;/div&gt;&lt;div style=&quot;line-height: 120%;&quot;&gt;&lt;span style=&quot;background-color: rgb(255, 248, 247);&quot;&gt;&lt;font style=&quot;font-size: 16px;&quot; color=&quot;#393a3b&quot;&gt;    TAX&lt;/font&gt;&lt;/span&gt;&lt;/div&gt;&lt;div style=&quot;line-height: 120%;&quot;&gt;&lt;span style=&quot;background-color: rgb(255, 248, 247);&quot;&gt;&lt;font style=&quot;font-size: 16px;&quot; color=&quot;#393a3b&quot;&gt;    STX.b $0E&lt;/font&gt;&lt;/span&gt;&lt;/div&gt;&lt;div style=&quot;line-height: 120%;&quot;&gt;&lt;span style=&quot;background-color: rgb(255, 248, 247);&quot;&gt;&lt;font style=&quot;font-size: 16px;&quot; color=&quot;#393a3b&quot;&gt;    LDA.w #$001C&lt;/font&gt;&lt;/span&gt;&lt;/div&gt;&lt;div style=&quot;line-height: 120%;&quot;&gt;&lt;span style=&quot;background-color: rgb(255, 248, 247);&quot;&gt;&lt;font style=&quot;font-size: 16px;&quot; color=&quot;#393a3b&quot;&gt;    JSR.w label_C1007E&lt;/font&gt;&lt;/span&gt;&lt;/div&gt;&lt;div style=&quot;line-height: 120%;&quot;&gt;&lt;span style=&quot;background-color: rgb(255, 248, 247);&quot;&gt;&lt;font style=&quot;font-size: 16px;&quot; color=&quot;#393a3b&quot;&gt;    LDX.b $0E&lt;/font&gt;&lt;/span&gt;&lt;/div&gt;&lt;div style=&quot;line-height: 120%;&quot;&gt;&lt;span style=&quot;background-color: rgb(255, 248, 247);&quot;&gt;&lt;font style=&quot;font-size: 16px;&quot; color=&quot;#393a3b&quot;&gt;    TXA&lt;/font&gt;&lt;/span&gt;&lt;/div&gt;&lt;div style=&quot;line-height: 120%;&quot;&gt;&lt;span style=&quot;background-color: rgb(255, 248, 247);&quot;&gt;&lt;font style=&quot;font-size: 16px;&quot; color=&quot;#393a3b&quot;&gt;    PLD&lt;/font&gt;&lt;/span&gt;&lt;/div&gt;&lt;div style=&quot;line-height: 120%;&quot;&gt;&lt;span style=&quot;background-color: rgb(255, 248, 247);&quot;&gt;&lt;font style=&quot;font-size: 16px;&quot; color=&quot;#393a3b&quot;&gt;    RTS&lt;/font&gt;&lt;/span&gt;&lt;/div&gt;&lt;/div&gt;&lt;p&gt;&lt;/p&gt;" style="text;whiteSpace=wrap;html=1;spacingBottom=0;spacingTop=0;" vertex="1" parent="1">
          <mxGeometry x="265.09000000000003" y="155" width="230" height="750" as="geometry" />
        </mxCell>
        <mxCell id="ILJzXNznsKejwd8JNXi--3" value="SP+0" style="rounded=0;whiteSpace=wrap;html=1;shadow=1;" vertex="1" parent="1">
          <mxGeometry x="445.09000000000003" y="225" width="80" height="20" as="geometry" />
        </mxCell>
        <mxCell id="ILJzXNznsKejwd8JNXi--4" value="SP+2" style="rounded=0;whiteSpace=wrap;html=1;shadow=1;" vertex="1" parent="1">
          <mxGeometry x="445.09000000000003" y="245" width="80" height="20" as="geometry" />
        </mxCell>
        <mxCell id="ILJzXNznsKejwd8JNXi--13" value="" style="endArrow=classic;html=1;rounded=0;entryX=0.783;entryY=0.12;entryDx=0;entryDy=0;entryPerimeter=0;" edge="1" parent="1">
          <mxGeometry width="50" height="50" relative="1" as="geometry">
            <mxPoint x="305" y="235" as="sourcePoint" />
            <mxPoint x="445.0899999999999" y="234.9999999999999" as="targetPoint" />
            <Array as="points" />
          </mxGeometry>
        </mxCell>
        <mxCell id="ILJzXNznsKejwd8JNXi--18" value="" style="endArrow=baseDash;startArrow=baseDash;html=1;rounded=0;startFill=0;endFill=0;endSize=20;startSize=20;" edge="1" parent="1">
          <mxGeometry width="50" height="50" relative="1" as="geometry">
            <mxPoint x="425" y="320" as="sourcePoint" />
            <mxPoint x="425.12" y="265" as="targetPoint" />
          </mxGeometry>
        </mxCell>
        <mxCell id="ILJzXNznsKejwd8JNXi--22" value="DP = DP -&amp;nbsp;18" style="edgeLabel;html=1;align=center;verticalAlign=middle;resizable=0;points=[];" vertex="1" connectable="0" parent="ILJzXNznsKejwd8JNXi--18">
          <mxGeometry x="0.0427" y="-1" relative="1" as="geometry">
            <mxPoint as="offset" />
          </mxGeometry>
        </mxCell>
        <mxCell id="ILJzXNznsKejwd8JNXi--23" value="" style="rounded=0;whiteSpace=wrap;html=1;" vertex="1" parent="1">
          <mxGeometry x="720" y="360" width="80" height="20" as="geometry" />
        </mxCell>
        <mxCell id="ILJzXNznsKejwd8JNXi--24" value="0x0" style="rounded=0;whiteSpace=wrap;html=1;fillColor=#eeeeee;strokeColor=#36393d;" vertex="1" parent="1">
          <mxGeometry x="680" y="360" width="40" height="20" as="geometry" />
        </mxCell>
        <mxCell id="ILJzXNznsKejwd8JNXi--27" value="0x2" style="rounded=0;whiteSpace=wrap;html=1;fillColor=#eeeeee;strokeColor=#36393d;" vertex="1" parent="1">
          <mxGeometry x="680" y="380" width="40" height="20" as="geometry" />
        </mxCell>
        <mxCell id="ILJzXNznsKejwd8JNXi--28" value="0x4" style="rounded=0;whiteSpace=wrap;html=1;fillColor=#eeeeee;strokeColor=#36393d;" vertex="1" parent="1">
          <mxGeometry x="680" y="400" width="40" height="20" as="geometry" />
        </mxCell>
        <mxCell id="ILJzXNznsKejwd8JNXi--29" value="0x6" style="rounded=0;whiteSpace=wrap;html=1;fillColor=#eeeeee;strokeColor=#36393d;" vertex="1" parent="1">
          <mxGeometry x="680" y="420" width="40" height="20" as="geometry" />
        </mxCell>
        <mxCell id="ILJzXNznsKejwd8JNXi--30" value="0x8" style="rounded=0;whiteSpace=wrap;html=1;fillColor=#eeeeee;strokeColor=#36393d;" vertex="1" parent="1">
          <mxGeometry x="680" y="440" width="40" height="20" as="geometry" />
        </mxCell>
        <mxCell id="ILJzXNznsKejwd8JNXi--31" value="0xA" style="rounded=0;whiteSpace=wrap;html=1;fillColor=#eeeeee;strokeColor=#36393d;" vertex="1" parent="1">
          <mxGeometry x="680" y="460" width="40" height="20" as="geometry" />
        </mxCell>
        <mxCell id="ILJzXNznsKejwd8JNXi--32" value="0xC" style="rounded=0;whiteSpace=wrap;html=1;fillColor=#eeeeee;strokeColor=#36393d;" vertex="1" parent="1">
          <mxGeometry x="680" y="480" width="40" height="20" as="geometry" />
        </mxCell>
        <mxCell id="ILJzXNznsKejwd8JNXi--33" value="0xE" style="rounded=0;whiteSpace=wrap;html=1;fillColor=#eeeeee;strokeColor=#36393d;" vertex="1" parent="1">
          <mxGeometry x="680" y="500" width="40" height="20" as="geometry" />
        </mxCell>
        <mxCell id="ILJzXNznsKejwd8JNXi--34" value="0x10" style="rounded=0;whiteSpace=wrap;html=1;fillColor=#eeeeee;strokeColor=#36393d;" vertex="1" parent="1">
          <mxGeometry x="680" y="520" width="40" height="20" as="geometry" />
        </mxCell>
        <mxCell id="ILJzXNznsKejwd8JNXi--35" value="A" style="rounded=0;whiteSpace=wrap;html=1;" vertex="1" parent="1">
          <mxGeometry x="720" y="380" width="80" height="20" as="geometry" />
        </mxCell>
        <mxCell id="ILJzXNznsKejwd8JNXi--37" value="" style="rounded=0;whiteSpace=wrap;html=1;" vertex="1" parent="1">
          <mxGeometry x="720" y="400" width="80" height="20" as="geometry" />
        </mxCell>
        <mxCell id="ILJzXNznsKejwd8JNXi--38" value="" style="rounded=0;whiteSpace=wrap;html=1;" vertex="1" parent="1">
          <mxGeometry x="720" y="420" width="80" height="20" as="geometry" />
        </mxCell>
        <mxCell id="ILJzXNznsKejwd8JNXi--39" value="" style="rounded=0;whiteSpace=wrap;html=1;" vertex="1" parent="1">
          <mxGeometry x="720" y="440" width="80" height="20" as="geometry" />
        </mxCell>
        <mxCell id="ILJzXNznsKejwd8JNXi--40" value="" style="rounded=0;whiteSpace=wrap;html=1;" vertex="1" parent="1">
          <mxGeometry x="720" y="460" width="80" height="20" as="geometry" />
        </mxCell>
        <mxCell id="ILJzXNznsKejwd8JNXi--41" value="" style="rounded=0;whiteSpace=wrap;html=1;" vertex="1" parent="1">
          <mxGeometry x="720" y="480" width="80" height="20" as="geometry" />
        </mxCell>
        <mxCell id="ILJzXNznsKejwd8JNXi--42" value="X" style="rounded=0;whiteSpace=wrap;html=1;" vertex="1" parent="1">
          <mxGeometry x="720" y="500" width="80" height="20" as="geometry" />
        </mxCell>
        <mxCell id="ILJzXNznsKejwd8JNXi--43" value="Y" style="rounded=0;whiteSpace=wrap;html=1;" vertex="1" parent="1">
          <mxGeometry x="720" y="520" width="80" height="20" as="geometry" />
        </mxCell>
        <mxCell id="ILJzXNznsKejwd8JNXi--44" value="&lt;font style=&quot;font-size: 10px;&quot;&gt;clobber&lt;/font&gt;" style="text;html=1;align=center;verticalAlign=middle;resizable=0;points=[];autosize=1;strokeColor=#36393d;fillColor=#ffcccc;spacing=0;fontSize=10;rounded=0;glass=0;shadow=0;" vertex="1" parent="1">
          <mxGeometry x="215.09000000000003" y="340" width="50" height="20" as="geometry" />
        </mxCell>
        <mxCell id="ILJzXNznsKejwd8JNXi--46" value="&lt;font style=&quot;font-size: 10px;&quot;&gt;clobber&lt;/font&gt;" style="text;html=1;align=center;verticalAlign=middle;resizable=0;points=[];autosize=1;strokeColor=#36393d;fillColor=#ffcccc;spacing=0;fontSize=10;rounded=0;glass=0;shadow=0;" vertex="1" parent="1">
          <mxGeometry x="215.09000000000003" y="360" width="50" height="20" as="geometry" />
        </mxCell>
        <mxCell id="ILJzXNznsKejwd8JNXi--47" value="&lt;font style=&quot;font-size: 10px;&quot;&gt;clobber&lt;/font&gt;" style="text;html=1;align=center;verticalAlign=middle;resizable=0;points=[];autosize=1;strokeColor=#36393d;fillColor=#ffcccc;spacing=0;fontSize=10;rounded=0;glass=0;shadow=0;" vertex="1" parent="1">
          <mxGeometry x="215.09000000000003" y="380" width="50" height="20" as="geometry" />
        </mxCell>
        <mxCell id="ILJzXNznsKejwd8JNXi--48" value="&lt;font style=&quot;font-size: 10px;&quot;&gt;does not modify&lt;/font&gt;" style="text;html=1;align=center;verticalAlign=middle;resizable=0;points=[];autosize=1;strokeColor=#36393d;fillColor=#ffcccc;spacing=0;fontSize=10;rounded=0;glass=0;shadow=0;" vertex="1" parent="1">
          <mxGeometry x="175.09000000000003" y="400" width="90" height="20" as="geometry" />
        </mxCell>
        <mxCell id="ILJzXNznsKejwd8JNXi--49" value="&lt;font style=&quot;font-size: 10px;&quot;&gt;restore&lt;/font&gt;" style="text;html=1;align=center;verticalAlign=middle;resizable=0;points=[];autosize=1;strokeColor=#36393d;fillColor=#ffcccc;spacing=0;fontSize=10;rounded=0;glass=0;shadow=0;" vertex="1" parent="1">
          <mxGeometry x="215.09000000000003" y="420" width="50" height="20" as="geometry" />
        </mxCell>
        <mxCell id="ILJzXNznsKejwd8JNXi--50" value="&lt;font style=&quot;font-size: 10px;&quot;&gt;does not modify&lt;/font&gt;" style="text;html=1;align=center;verticalAlign=middle;resizable=0;points=[];autosize=1;strokeColor=#36393d;fillColor=#ffcccc;spacing=0;fontSize=10;rounded=0;glass=0;shadow=0;" vertex="1" parent="1">
          <mxGeometry x="175.09000000000006" y="440" width="90" height="20" as="geometry" />
        </mxCell>
        <mxCell id="ILJzXNznsKejwd8JNXi--51" value="&lt;font style=&quot;font-size: 10px;&quot;&gt;restore&lt;/font&gt;" style="text;html=1;align=center;verticalAlign=middle;resizable=0;points=[];autosize=1;strokeColor=#36393d;fillColor=#ffcccc;spacing=0;fontSize=10;rounded=0;glass=0;shadow=0;" vertex="1" parent="1">
          <mxGeometry x="215.09000000000003" y="460" width="50" height="20" as="geometry" />
        </mxCell>
        <mxCell id="ILJzXNznsKejwd8JNXi--52" value="&lt;font style=&quot;font-size: 10px;&quot;&gt;restore&lt;/font&gt;" style="text;html=1;align=center;verticalAlign=middle;resizable=0;points=[];autosize=1;strokeColor=#36393d;fillColor=#ffcccc;spacing=0;fontSize=10;rounded=0;glass=0;shadow=0;" vertex="1" parent="1">
          <mxGeometry x="215.09000000000003" y="480" width="50" height="20" as="geometry" />
        </mxCell>
        <mxCell id="ILJzXNznsKejwd8JNXi--53" value="&lt;font style=&quot;font-size: 10px;&quot;&gt;restore&lt;/font&gt;" style="text;html=1;align=center;verticalAlign=middle;resizable=0;points=[];autosize=1;strokeColor=#36393d;fillColor=#ffcccc;spacing=0;fontSize=10;rounded=0;glass=0;shadow=0;" vertex="1" parent="1">
          <mxGeometry x="215.09000000000003" y="500" width="50" height="20" as="geometry" />
        </mxCell>
        <mxCell id="ILJzXNznsKejwd8JNXi--54" value="A" style="whiteSpace=wrap;html=1;fillColor=#eeeeee;strokeColor=#36393d;" vertex="1" parent="1">
          <mxGeometry x="680" y="200" width="40" height="20" as="geometry" />
        </mxCell>
        <mxCell id="ILJzXNznsKejwd8JNXi--55" value="Return Reg" style="whiteSpace=wrap;html=1;" vertex="1" parent="1">
          <mxGeometry x="720" y="200" width="80" height="20" as="geometry" />
        </mxCell>
        <mxCell id="ILJzXNznsKejwd8JNXi--56" value="" style="endArrow=classic;html=1;rounded=0;entryX=0.783;entryY=0.12;entryDx=0;entryDy=0;entryPerimeter=0;" edge="1" parent="1">
          <mxGeometry width="50" height="50" relative="1" as="geometry">
            <mxPoint x="305.09000000000003" y="255" as="sourcePoint" />
            <mxPoint x="445.09000000000003" y="255" as="targetPoint" />
            <Array as="points" />
          </mxGeometry>
        </mxCell>
        <mxCell id="ILJzXNznsKejwd8JNXi--57" value="SP+2" style="rounded=0;whiteSpace=wrap;html=1;shadow=1;" vertex="1" parent="1">
          <mxGeometry x="110.00000000000006" y="320" width="80" height="20" as="geometry" />
        </mxCell>
        <mxCell id="ILJzXNznsKejwd8JNXi--58" value="" style="endArrow=classic;html=1;rounded=0;entryX=0.783;entryY=0.12;entryDx=0;entryDy=0;entryPerimeter=0;exitX=1;exitY=0.5;exitDx=0;exitDy=0;" edge="1" parent="1" source="ILJzXNznsKejwd8JNXi--57">
          <mxGeometry width="50" height="50" relative="1" as="geometry">
            <mxPoint x="200" y="329.5" as="sourcePoint" />
            <mxPoint x="265.0899999999999" y="329.9999999999999" as="targetPoint" />
            <Array as="points" />
          </mxGeometry>
        </mxCell>
        <mxCell id="ILJzXNznsKejwd8JNXi--59" value="SP+0" style="rounded=0;whiteSpace=wrap;html=1;shadow=1;" vertex="1" parent="1">
          <mxGeometry x="110.00000000000006" y="640" width="80" height="20" as="geometry" />
        </mxCell>
        <mxCell id="ILJzXNznsKejwd8JNXi--60" value="" style="endArrow=classic;html=1;rounded=0;entryX=0.783;entryY=0.12;entryDx=0;entryDy=0;entryPerimeter=0;exitX=1;exitY=0.5;exitDx=0;exitDy=0;" edge="1" parent="1" source="ILJzXNznsKejwd8JNXi--59">
          <mxGeometry width="50" height="50" relative="1" as="geometry">
            <mxPoint x="200" y="649.5" as="sourcePoint" />
            <mxPoint x="265.0899999999999" y="649.9999999999999" as="targetPoint" />
            <Array as="points" />
          </mxGeometry>
        </mxCell>
        <mxCell id="ILJzXNznsKejwd8JNXi--61" value="&lt;font style=&quot;font-size: 10px;&quot;&gt;clobber&lt;/font&gt;" style="text;html=1;align=center;verticalAlign=middle;resizable=0;points=[];autosize=1;strokeColor=#36393d;fillColor=#ffcccc;spacing=0;fontSize=10;rounded=0;glass=0;shadow=0;" vertex="1" parent="1">
          <mxGeometry x="215.09000000000003" y="550" width="50" height="20" as="geometry" />
        </mxCell>
        <mxCell id="ILJzXNznsKejwd8JNXi--62" value="&lt;font style=&quot;font-size: 10px;&quot;&gt;restore&lt;/font&gt;" style="text;html=1;align=center;verticalAlign=middle;resizable=0;points=[];autosize=1;strokeColor=#36393d;fillColor=#ffcccc;spacing=0;fontSize=10;rounded=0;glass=0;shadow=0;" vertex="1" parent="1">
          <mxGeometry x="215.09000000000003" y="610" width="50" height="20" as="geometry" />
        </mxCell>
      </root>
    </mxGraphModel>
  </diagram>
</mxfile>
